<svg xmlns="http://www.w3.org/2000/svg" viewBox="0 0 100 100" width="100" height="100" role="img" aria-label="CleanUp">
  <defs>
    <clipPath id="sq"><rect width="100" height="100" rx="22"/></clipPath>
    <linearGradient id="cA" x1="56" y1="0" x2="100" y2="44" gradientUnits="userSpaceOnUse"><stop offset="0" stop-color="#FFB020"/><stop offset="1" stop-color="#EB4E10"/></linearGradient>
    <linearGradient id="cB" x1="0" y1="56" x2="44" y2="100" gradientUnits="userSpaceOnUse"><stop offset="0" stop-color="#EB4E10"/><stop offset="1" stop-color="#B8380A"/></linearGradient>
  </defs>
  <g clip-path="url(#sq)">
    <rect width="100" height="100" fill="#14100c"/>
    <path d="M56,0 L100,0 L100,44 Z" fill="url(#cA)"/>
    <path d="M0,56 L0,100 L44,100 Z" fill="url(#cB)"/>
    <g transform="translate(-4,4) rotate(30 50 50)"><rect x="47.5" y="6" width="5" height="33" rx="2.5" fill="#fff8f0"/><rect x="42.5" y="38" width="15" height="8" rx="2" fill="#fff8f0"/><path d="M42.5,46 C40,58 37,65 35,72 L65,72 C63,65 60,58 57.5,46 Z" fill="#fff8f0"/><rect x="42" y="46" width="16" height="2.5" fill="#14100c"/><g stroke="#14100c" stroke-width="2"><path d="M45.5,50 L41,70 M50,50 L50,70 M54.5,50 L59,70"/></g></g>
  </g>
</svg>
